<svg width="114" height="87" viewBox="0 0 114 87" fill="none" xmlns="http://www.w3.org/2000/svg">
<path d="M95 77.9375C95 78.938 94.1488 79.75 93.1 79.75C92.0512 79.75 91.2 78.938 91.2 77.9375C91.2 76.937 92.0512 76.125 93.1 76.125C94.1488 76.125 95 76.937 95 77.9375ZM89.3 32.625H96.9C97.9526 32.625 98.8 33.4334 98.8 34.4375C98.8 35.4416 97.9526 36.25 96.9 36.25H89.3C88.2474 36.25 87.4 35.4416 87.4 34.4375C87.4 33.4334 88.2474 32.625 89.3 32.625ZM77.9 25.375C74.7764 25.375 72.2 27.8328 72.2 30.8125V81.5625C72.2 84.5423 74.7764 87 77.9 87H108.3C111.424 87 114 84.5423 114 81.5625V30.8125C114 27.8328 111.424 25.375 108.3 25.375H77.9ZM77.9 29H108.3C109.387 29 110.2 29.7757 110.2 30.8125V81.5625C110.2 82.5993 109.387 83.375 108.3 83.375H77.9C76.8132 83.375 76 82.5993 76 81.5625V30.8125C76 29.7757 76.8132 29 77.9 29ZM53.2 59.8125C53.2 60.813 52.3488 61.625 51.3 61.625C50.2512 61.625 49.4 60.813 49.4 59.8125C49.4 58.812 50.2512 58 51.3 58C52.3488 58 53.2 58.812 53.2 59.8125ZM5.7 0C2.5764 0 0 2.45775 0 5.4375V63.4375C0 66.4173 2.5764 68.875 5.7 68.875H41.8V76.125H36.1C35.0474 76.125 34.2 76.9334 34.2 77.9375C34.2 78.9416 35.0474 79.75 36.1 79.75H66.5C67.5526 79.75 68.4 78.9416 68.4 77.9375C68.4 76.9334 67.5526 76.125 66.5 76.125H60.8V68.875H66.5C69.0384 68.875 68.9928 65.25 66.5 65.25H5.7C4.6132 65.25 3.8 64.4743 3.8 63.4375V54.375H66.5C67.5526 54.375 68.4 53.5666 68.4 52.5625C68.4 51.5584 67.5526 50.75 66.5 50.75H3.8V5.4375C3.8 4.40075 4.6132 3.625 5.7 3.625H96.9C97.9868 3.625 98.8 4.40075 98.8 5.4375V19.9375C98.8 22.3481 102.6 22.3191 102.6 19.9375V5.4375C102.6 2.45775 100.024 0 96.9 0H5.7ZM45.6 68.875H57V76.125H45.6V68.875Z" fill="#5477BA"/>
</svg>
