<svg width="74" height="94" viewBox="0 0 74 94" fill="none" xmlns="http://www.w3.org/2000/svg">
<path d="M4.32343 94H68.8861C71.2709 94 73.2095 92.0614 73.2095 89.6766V4.32343C73.2095 1.94036 71.2709 0 68.8861 0H4.32343C1.93862 0 0 1.94036 0 4.32343V89.6748C0 92.0614 1.94035 94 4.32343 94ZM5.18811 5.18812H68.0214V88.8102H5.18811V5.18812Z" fill="#5477BA"/>
<path d="M60.3862 11.5488H12.8284C11.3982 11.5488 10.2344 12.7127 10.2344 14.1429V73.3739C10.2344 74.8041 11.3982 75.9679 12.8284 75.9679H60.3862C61.8163 75.9679 62.9802 74.8041 62.9802 73.3739V14.1429C62.9802 12.7127 61.8163 11.5488 60.3862 11.5488ZM61.2508 73.3739C61.2508 73.8494 60.8635 74.2386 60.3862 74.2386H12.8284C12.3511 74.2386 11.9637 73.8494 11.9637 73.3739V14.1429C11.9637 13.6656 12.3511 13.2782 12.8284 13.2782H60.3862C60.8635 13.2782 61.2508 13.6656 61.2508 14.1429V73.3739Z" fill="#5477BA"/>
<path d="M36.6069 77.8438C34.2238 77.8438 32.2852 79.7824 32.2852 82.1655C32.2852 84.5485 34.2238 86.4872 36.6069 86.4872C38.9882 86.4872 40.9268 84.5485 40.9268 82.1655C40.9268 79.7824 38.9899 77.8438 36.6069 77.8438ZM36.6069 84.756C35.1767 84.756 34.0145 83.5939 34.0145 82.1637C34.0145 80.7335 35.1767 79.5714 36.6069 79.5714C38.0353 79.5714 39.1975 80.7335 39.1975 82.1637C39.1975 83.5939 38.037 84.756 36.6069 84.756Z" fill="#5477BA"/>
</svg>
