<svg width="66" height="90" viewBox="0 0 66 90" fill="none" xmlns="http://www.w3.org/2000/svg">
<path d="M61.8826 38.2127L18.0879 86.0562L28.7866 49.1471H8.33907C7.49938 49.1998 6.65884 49.0561 5.89537 48.7292C5.1319 48.4024 4.4702 47.9029 3.97163 47.2772C3.47305 46.6514 3.15373 45.9196 3.04326 45.1497C2.93278 44.3797 3.03474 43.5964 3.33967 42.8725L19.4877 5.96339C19.9008 5.06316 20.5995 4.29934 21.4918 3.77234C22.384 3.24534 23.4282 2.97981 24.4871 3.01066H46.1845C47.0242 2.95789 47.8647 3.10161 48.6282 3.42848C49.3916 3.75536 50.0533 4.25482 50.5519 4.88056C51.0505 5.50631 51.3698 6.23809 51.4803 7.00806C51.5907 7.77804 51.4888 8.56129 51.1839 9.28521L41.585 30.6925H58.083C59.0206 30.7068 59.9349 30.9641 60.7215 31.435C61.5082 31.906 62.1354 32.5716 62.5317 33.3559C62.9279 34.1401 63.0772 35.0114 62.9624 35.8703C62.8476 36.7291 62.4734 37.5408 61.8826 38.2127Z" stroke="#5477BA" stroke-width="6" stroke-linecap="round" stroke-linejoin="round"/>
</svg>
