<svg width="71" height="65" viewBox="0 0 71 65" fill="none" xmlns="http://www.w3.org/2000/svg">
<path d="M51.9125 24.45L43.85 17.1375L57.2875 4.95C54.8688 3.73125 51.9125 3 48.6875 3C38.2062 3 29.875 10.5562 29.875 20.0625C29.875 21.0375 29.875 22.0125 30.1438 22.9875C22.35 30.0562 7.8375 43.2188 6.225 44.6813C1.925 48.5813 1.925 54.675 6.225 58.575C10.525 62.475 17.2437 62.475 21.5437 58.575C23.1562 57.1125 37.6687 43.95 45.4625 36.8812C46.5375 37.125 47.6125 37.125 48.6875 37.125C59.1688 37.125 67.5 29.5688 67.5 20.0625C67.5 17.1375 66.6938 14.4563 65.35 12.2625L51.9125 24.45Z" stroke="#5477BA" stroke-width="6" stroke-miterlimit="10"/>
</svg>
